<svg xmlns="http://www.w3.org/2000/svg" viewBox="0 0 300 300">
  <g fill="#1B2832" fill-rule="evenodd" stroke="#1B2832" stroke-linecap="round" stroke-width=".25mm" font-size="12">
    <path d="M 10.1 73.5 L 0 73.5 L 0 21.5 L 10.1 21.5 L 10.1 31.5 A 19.788 19.788 0 0 1 10.32 30.814 Q 10.879 29.169 11.746 27.558 A 22.755 22.755 0 0 1 11.75 27.55 A 17.266 17.266 0 0 1 12.142 26.861 Q 13.048 25.349 14.242 24.062 A 16.919 16.919 0 0 1 14.3 24 A 10.382 10.382 0 0 1 14.684 23.612 Q 15.946 22.4 17.565 21.673 A 10.792 10.792 0 0 1 17.85 21.55 A 11.517 11.517 0 0 1 18.365 21.351 Q 20.068 20.739 21.872 20.702 A 11.33 11.33 0 0 1 22.1 20.7 A 12.964 12.964 0 0 1 22.75 20.716 Q 24.163 20.787 25.52 21.168 A 12.712 12.712 0 0 1 25.8 21.25 A 9.049 9.049 0 0 1 26.354 21.439 Q 27.827 21.995 29.05 23.05 Q 30.5 24.3 31.4 25.95 Q 32.3 27.6 32.8 29.4 Q 33.3 31.2 33.5 33.1 Q 33.7 35 33.7 36.9 L 23.6 36.9 A 22.237 22.237 0 0 0 23.592 36.293 Q 23.574 35.651 23.519 35.022 A 20.683 20.683 0 0 0 23.45 34.35 A 6.828 6.828 0 0 0 23.139 32.975 Q 23 32.563 22.807 32.163 A 7.465 7.465 0 0 0 22.7 31.95 Q 22.1 30.8 20.95 30.15 Q 20.05 29.641 19.119 29.531 A 4.398 4.398 0 0 0 18.6 29.5 A 7.039 7.039 0 0 0 18.265 29.508 Q 16.659 29.584 15.3 30.4 A 7.682 7.682 0 0 0 14.979 30.603 Q 13.702 31.459 12.9 32.75 Q 12 34.2 11.45 35.85 Q 10.9 37.5 10.6 39.15 Q 10.312 40.736 10.208 42.367 A 28.589 28.589 0 0 0 10.2 42.5 A 57.905 57.905 0 0 0 10.102 45.475 A 57.805 57.805 0 0 0 10.1 45.9 L 10.1 73.5 Z" transform="translate(81.00000241 14.89999053)" vector-effect="non-scaling-stroke"/>
    <path d="M 65 42.2 L 72 42.2 L 72 38.1 A 11.628 11.628 0 0 0 71.984 37.484 Q 71.905 36.008 71.45 34.6 Q 70.904 32.912 69.569 31.717 A 7.216 7.216 0 0 0 69.55 31.7 Q 68.224 30.522 66.513 30.018 A 8.44 8.44 0 0 0 66.45 30 Q 64.999 29.586 63.583 29.515 A 11.66 11.66 0 0 0 63 29.5 A 16.295 16.295 0 0 0 62.471 29.509 Q 61.05 29.555 59.7 29.85 Q 58.334 30.149 57.187 30.885 A 7.732 7.732 0 0 0 56.8 31.15 A 6.638 6.638 0 0 0 56.369 31.493 Q 55.453 32.287 54.854 33.399 A 7.513 7.513 0 0 0 54.75 33.6 A 7.705 7.705 0 0 0 54.616 33.882 Q 54.024 35.198 54.001 36.589 A 6.806 6.806 0 0 0 54 36.7 L 43.9 36.7 A 15.163 15.163 0 0 1 43.955 35.406 Q 44.094 33.79 44.578 32.174 A 17.223 17.223 0 0 1 44.6 32.1 Q 45.3 29.8 46.6 27.85 A 14.237 14.237 0 0 1 46.934 27.371 Q 47.922 26.013 49.196 24.942 A 13.841 13.841 0 0 1 49.75 24.5 A 17.639 17.639 0 0 1 51.436 23.371 Q 52.563 22.706 53.8 22.2 Q 55.334 21.573 56.916 21.237 A 17.675 17.675 0 0 1 58.3 21 A 34.927 34.927 0 0 1 59.166 20.898 Q 60.712 20.736 62.302 20.706 A 38.056 38.056 0 0 1 63 20.7 A 33.155 33.155 0 0 1 64.052 20.717 Q 65.663 20.768 67.295 20.975 A 35.853 35.853 0 0 1 67.85 21.05 Q 70.3 21.4 72.55 22.4 A 17.413 17.413 0 0 1 73.518 22.866 Q 74.914 23.593 76.166 24.567 A 17.863 17.863 0 0 1 76.7 25 Q 78.459 26.481 79.661 28.391 A 14.608 14.608 0 0 1 79.85 28.7 A 14.379 14.379 0 0 1 80.361 29.635 Q 81.167 31.251 81.56 33.06 A 15.473 15.473 0 0 1 81.6 33.25 A 25.774 25.774 0 0 1 81.717 33.862 Q 82.062 35.785 82.096 37.678 A 23.107 23.107 0 0 1 82.1 38.1 L 82.1 73.5 L 72 73.5 L 72 65.4 Q 71.209 67.245 69.955 68.82 A 15.404 15.404 0 0 1 69.6 69.25 A 14.331 14.331 0 0 1 69.218 69.678 Q 67.922 71.073 66.315 72.051 A 13.72 13.72 0 0 1 66.15 72.15 A 14.262 14.262 0 0 1 65.188 72.669 Q 63.891 73.305 62.47 73.675 A 15.021 15.021 0 0 1 61.95 73.8 Q 59.7 74.3 57.4 74.3 A 20.792 20.792 0 0 1 56.686 74.288 Q 55.134 74.234 53.55 73.95 A 11.318 11.318 0 0 1 52.962 73.828 Q 51.362 73.453 49.937 72.622 A 11.321 11.321 0 0 1 49.9 72.6 Q 48.378 71.705 47.177 70.409 A 12.405 12.405 0 0 1 46.9 70.1 Q 45.726 68.746 44.96 67.147 A 13.343 13.343 0 0 1 44.8 66.8 Q 44.277 65.623 43.946 64.403 A 16.18 16.18 0 0 1 43.65 63.1 A 20.762 20.762 0 0 1 43.498 62.151 Q 43.306 60.75 43.3 59.295 A 22.812 22.812 0 0 1 43.3 59.2 A 20.644 20.644 0 0 1 43.506 56.291 Q 43.645 55.311 43.879 54.338 A 21.492 21.492 0 0 1 43.95 54.05 Q 44.6 51.5 46.2 49.4 A 15.821 15.821 0 0 1 46.662 48.822 Q 48.109 47.096 50 45.85 Q 51.852 44.629 53.916 43.869 A 19.257 19.257 0 0 1 54.7 43.6 Q 56.963 42.876 59.308 42.561 A 26.903 26.903 0 0 1 59.8 42.5 A 45.76 45.76 0 0 1 61.1 42.369 Q 62.06 42.286 63.02 42.244 A 45.104 45.104 0 0 1 65 42.2 Z M 72 55.5 L 72 51 L 65 51 A 33.867 33.867 0 0 0 62.725 51.077 A 34.066 34.066 0 0 0 62.4 51.1 A 16.547 16.547 0 0 0 61.633 51.177 Q 61.181 51.233 60.735 51.314 A 16.067 16.067 0 0 0 59.85 51.5 A 14.975 14.975 0 0 0 59.27 51.652 Q 58.562 51.852 57.887 52.119 A 14.13 14.13 0 0 0 57.45 52.3 Q 56.432 52.743 55.531 53.46 A 9.334 9.334 0 0 0 55.3 53.65 Q 54.302 54.498 53.852 55.694 A 4.895 4.895 0 0 0 53.85 55.7 A 7.089 7.089 0 0 0 53.658 56.287 Q 53.4 57.215 53.4 58.2 Q 53.4 59.8 53.95 61.25 Q 54.436 62.531 55.39 63.5 A 6.803 6.803 0 0 0 55.65 63.75 A 6.046 6.046 0 0 0 55.944 64.002 Q 56.883 64.755 58.067 65.079 A 6.423 6.423 0 0 0 58.35 65.15 A 15.063 15.063 0 0 0 58.737 65.232 Q 60.041 65.491 61.31 65.5 A 12.873 12.873 0 0 0 61.4 65.5 A 14.572 14.572 0 0 0 63.747 65.31 Q 64.462 65.194 65.171 65.006 A 15.353 15.353 0 0 0 65.55 64.9 Q 67.6 64.3 69.1 62.95 Q 70.513 61.678 71.216 59.83 A 9.13 9.13 0 0 0 71.3 59.6 A 12.772 12.772 0 0 0 71.492 59.004 Q 71.9 57.627 71.98 56.203 A 12.467 12.467 0 0 0 72 55.5 Z" transform="translate(81.00000241 14.89999053)" vector-effect="non-scaling-stroke"/>
    <path d="M 116.3 73.5 L 106.3 73.5 L 106.3 30.3 L 94.1 30.3 L 94.1 21.5 L 106.3 21.5 L 106.3 15.5 A 24.995 24.995 0 0 1 106.322 14.453 Q 106.346 13.866 106.399 13.283 A 24.463 24.463 0 0 1 106.65 11.35 A 15.114 15.114 0 0 1 106.89 10.209 Q 107.174 9.081 107.631 8.001 A 15.586 15.586 0 0 1 107.9 7.4 Q 108.8 5.5 110.3 4 Q 111.796 2.504 113.689 1.605 A 12.509 12.509 0 0 1 113.7 1.6 Q 115.6 0.7 117.65 0.35 Q 119.7 0 121.8 0 L 132.1 0 L 132.1 8.8 L 121.8 8.8 A 6.622 6.622 0 0 0 121.477 8.808 Q 120.378 8.861 119.389 9.283 A 6.069 6.069 0 0 0 119.35 9.3 Q 118.2 9.8 117.5 10.8 A 6.047 6.047 0 0 0 117.254 11.181 Q 116.753 12.024 116.55 13 A 11.488 11.488 0 0 0 116.453 13.53 Q 116.311 14.414 116.301 15.351 A 13.43 13.43 0 0 0 116.3 15.5 L 116.3 21.5 L 132.1 21.5 L 132.1 30.3 L 116.3 30.3 L 116.3 73.5 Z" transform="translate(81.00000241 14.89999053)" vector-effect="non-scaling-stroke"/>
  </g>
  <g fill="#1B2832" fill-rule="evenodd" stroke="#1B2832" stroke-linecap="round" stroke-width=".25mm" font-size="12">
    <path d="M 35 74.5 L 0 74.5 L 0 65.7 L 13.2 65.7 L 13.2 31.3 L 1.4 31.3 L 1.4 22.5 L 23.2 22.5 L 23.2 65.7 L 35 65.7 L 35 74.5 Z M 14.5 14.55 A 11.211 11.211 0 0 0 14.872 14.655 Q 16.186 15 17.5 15 A 10.035 10.035 0 0 0 18.4 14.959 Q 19.227 14.885 20.055 14.674 A 11.181 11.181 0 0 0 20.5 14.55 A 6.926 6.926 0 0 0 20.51 14.547 Q 22.004 14.096 23.05 13.05 Q 24.1 12 24.55 10.5 A 11.211 11.211 0 0 0 24.655 10.128 Q 25 8.814 25 7.5 A 10.035 10.035 0 0 0 24.959 6.6 Q 24.885 5.773 24.674 4.945 A 11.181 11.181 0 0 0 24.55 4.5 A 6.926 6.926 0 0 0 24.547 4.49 Q 24.096 2.996 23.05 1.95 Q 22 0.9 20.5 0.45 A 11.211 11.211 0 0 0 20.128 0.345 Q 18.814 0 17.5 0 A 10.035 10.035 0 0 0 16.6 0.041 Q 15.773 0.115 14.945 0.326 A 11.181 11.181 0 0 0 14.5 0.45 A 6.926 6.926 0 0 0 14.49 0.453 Q 12.996 0.904 11.95 1.95 Q 10.9 3 10.45 4.5 A 11.211 11.211 0 0 0 10.345 4.872 Q 10 6.186 10 7.5 A 10.035 10.035 0 0 0 10.041 8.4 Q 10.115 9.227 10.326 10.055 A 11.181 11.181 0 0 0 10.45 10.5 A 6.926 6.926 0 0 0 10.453 10.51 Q 10.904 12.004 11.95 13.05 Q 13 14.1 14.5 14.55 Z" transform="translate(80.10000086 101.19999996)" vector-effect="non-scaling-stroke"/>
    <path d="M 70.7 74.5 L 60.7 74.5 L 60.7 31.3 L 48.5 31.3 L 48.5 22.5 L 60.7 22.5 L 60.7 16.5 A 24.995 24.995 0 0 1 60.722 15.453 Q 60.746 14.866 60.799 14.283 A 24.463 24.463 0 0 1 61.05 12.35 A 15.114 15.114 0 0 1 61.29 11.209 Q 61.574 10.081 62.031 9.001 A 15.586 15.586 0 0 1 62.3 8.4 Q 63.2 6.5 64.7 5 Q 66.196 3.504 68.089 2.605 A 12.509 12.509 0 0 1 68.1 2.6 Q 70 1.7 72.05 1.35 Q 74.1 1 76.2 1 L 86.5 1 L 86.5 9.8 L 76.2 9.8 A 6.622 6.622 0 0 0 75.877 9.808 Q 74.778 9.861 73.789 10.283 A 6.069 6.069 0 0 0 73.75 10.3 Q 72.6 10.8 71.9 11.8 A 6.047 6.047 0 0 0 71.654 12.181 Q 71.153 13.024 70.95 14 A 11.488 11.488 0 0 0 70.853 14.53 Q 70.711 15.414 70.701 16.351 A 13.43 13.43 0 0 0 70.7 16.5 L 70.7 22.5 L 86.5 22.5 L 86.5 31.3 L 70.7 31.3 L 70.7 74.5 Z" transform="translate(80.10000086 101.19999996)" vector-effect="non-scaling-stroke"/>
    <path d="M 97.7 54.5 L 97.7 42.5 A 32.465 32.465 0 0 1 97.774 40.306 Q 97.849 39.204 97.999 38.102 A 33.519 33.519 0 0 1 98.15 37.1 Q 98.563 34.625 99.563 32.318 A 20.947 20.947 0 0 1 99.75 31.9 Q 100.78 29.66 102.373 27.781 A 18.437 18.437 0 0 1 102.75 27.35 A 16.543 16.543 0 0 1 103.221 26.849 Q 104.9 25.137 107 24 Q 109.103 22.861 111.436 22.221 A 21.773 21.773 0 0 1 112.1 22.05 A 24.167 24.167 0 0 1 112.775 21.898 Q 114.736 21.485 116.697 21.414 A 22.444 22.444 0 0 1 117.5 21.4 A 22.486 22.486 0 0 1 119.188 21.463 Q 120.921 21.594 122.654 21.992 A 24.32 24.32 0 0 1 122.9 22.05 Q 124.153 22.352 125.342 22.794 A 20.755 20.755 0 0 1 128 24 A 16.015 16.015 0 0 1 128.737 24.425 Q 130.689 25.62 132.25 27.35 A 18.386 18.386 0 0 1 132.784 27.969 Q 134.251 29.748 135.225 31.845 A 18.375 18.375 0 0 1 135.25 31.9 Q 136.263 34.102 136.733 36.459 A 20.613 20.613 0 0 1 136.85 37.1 A 33.517 33.517 0 0 1 137.003 38.112 Q 137.175 39.381 137.247 40.649 A 32.446 32.446 0 0 1 137.3 42.5 L 137.3 54.5 A 32.465 32.465 0 0 1 137.226 56.694 Q 137.151 57.796 137.001 58.898 A 33.519 33.519 0 0 1 136.85 59.9 Q 136.437 62.375 135.437 64.682 A 20.947 20.947 0 0 1 135.25 65.1 Q 134.22 67.34 132.627 69.219 A 18.437 18.437 0 0 1 132.25 69.65 A 16.543 16.543 0 0 1 131.779 70.151 Q 130.1 71.862 128 73 Q 125.6 74.3 122.9 74.8 A 30.424 30.424 0 0 1 121.972 74.957 Q 119.87 75.279 117.768 75.299 A 29.163 29.163 0 0 1 117.5 75.3 A 29.222 29.222 0 0 1 115.475 75.23 Q 113.853 75.117 112.232 74.824 A 30.638 30.638 0 0 1 112.1 74.8 A 17.735 17.735 0 0 1 111.347 74.644 Q 109.473 74.212 107.749 73.383 A 17.449 17.449 0 0 1 107 73 A 16.015 16.015 0 0 1 106.263 72.575 Q 104.311 71.38 102.75 69.65 A 18.386 18.386 0 0 1 102.216 69.031 Q 100.749 67.252 99.775 65.155 A 18.375 18.375 0 0 1 99.75 65.1 Q 98.737 62.898 98.267 60.541 A 20.613 20.613 0 0 1 98.15 59.9 A 33.517 33.517 0 0 1 97.997 58.888 Q 97.825 57.619 97.753 56.351 A 32.446 32.446 0 0 1 97.7 54.5 Z M 127.2 54.5 L 127.2 42.5 A 21.566 21.566 0 0 0 127.137 40.85 Q 127.035 39.529 126.772 38.207 A 22.861 22.861 0 0 0 126.75 38.1 A 10.879 10.879 0 0 0 126.641 37.624 Q 126.184 35.807 125.124 34.275 A 10.621 10.621 0 0 0 125 34.1 Q 123.717 32.323 121.703 31.424 A 8.878 8.878 0 0 0 121.65 31.4 Q 119.7 30.544 117.613 30.502 A 10.704 10.704 0 0 0 117.4 30.5 Q 115.2 30.5 113.15 31.45 A 8.86 8.86 0 0 0 112.835 31.604 Q 111.081 32.502 109.992 34.065 A 7.893 7.893 0 0 0 109.9 34.2 Q 108.7 36 108.25 38.15 A 21.259 21.259 0 0 0 108.022 39.431 Q 107.856 40.573 107.814 41.728 A 21.395 21.395 0 0 0 107.8 42.5 L 107.8 54.5 Q 107.8 56.571 108.199 58.598 A 21.371 21.371 0 0 0 108.25 58.85 Q 108.7 61 109.95 62.8 Q 111.2 64.6 113.25 65.55 A 10.865 10.865 0 0 0 113.636 65.72 Q 115.506 66.5 117.5 66.5 Q 119.7 66.5 121.75 65.55 Q 123.647 64.671 124.859 63.064 A 8.313 8.313 0 0 0 125.05 62.8 A 11.062 11.062 0 0 0 125.35 62.345 Q 126.222 60.946 126.634 59.347 A 11.14 11.14 0 0 0 126.75 58.85 A 21.259 21.259 0 0 0 126.978 57.569 Q 127.144 56.427 127.186 55.272 A 21.395 21.395 0 0 0 127.2 54.5 Z" transform="translate(80.10000086 101.19999996)" vector-effect="non-scaling-stroke"/>
  </g>
  <g fill="#1B2832" fill-rule="evenodd" stroke="#1B2832" stroke-linecap="round" stroke-width=".25mm" font-size="12">
    <path d="M 0 67.7 L 10.1 67.7 A 5.536 5.536 0 0 0 10.138 68.351 Q 10.275 69.506 10.9 70.6 Q 11.7 72 13.05 72.85 A 8.75 8.75 0 0 0 13.477 73.102 Q 14.642 73.747 15.95 74 A 16.41 16.41 0 0 0 17.697 74.242 Q 18.133 74.278 18.572 74.292 A 16.942 16.942 0 0 0 19.1 74.3 A 18.208 18.208 0 0 0 19.759 74.288 Q 20.853 74.248 21.975 74.078 A 20.548 20.548 0 0 0 22.15 74.05 Q 23.61 73.815 24.892 73.091 A 8.514 8.514 0 0 0 25.05 73 Q 26.312 72.252 27.181 70.98 A 7.764 7.764 0 0 0 27.3 70.8 Q 28.2 69.4 28.2 67.8 Q 28.2 66.738 27.641 65.676 A 5.891 5.891 0 0 0 27.6 65.6 A 6.13 6.13 0 0 0 27.445 65.332 Q 26.881 64.413 26.05 63.8 A 8.3 8.3 0 0 0 25.596 63.488 Q 24.842 63.006 24 62.7 A 21.693 21.693 0 0 0 23.584 62.554 Q 22.675 62.244 21.7 62 Q 19.344 61.411 17.035 60.774 A 193.702 193.702 0 0 1 16.95 60.75 A 37.53 37.53 0 0 1 12.914 59.383 A 37.773 37.773 0 0 1 12.35 59.15 A 31.385 31.385 0 0 1 10.274 58.182 Q 9.188 57.628 8.14 56.986 A 32.36 32.36 0 0 1 8 56.9 A 15.906 15.906 0 0 1 7.484 56.566 Q 5.728 55.383 4.383 53.79 A 14.98 14.98 0 0 1 4.35 53.75 Q 2.859 51.97 1.969 49.774 A 15.793 15.793 0 0 1 1.9 49.6 A 13.239 13.239 0 0 1 1.653 48.913 Q 1.058 47.105 1.005 45.178 A 13.767 13.767 0 0 1 1 44.8 A 14.942 14.942 0 0 1 1.057 43.494 Q 1.171 42.202 1.508 40.91 A 16.657 16.657 0 0 1 1.65 40.4 Q 2.066 38.993 2.727 37.729 A 14.304 14.304 0 0 1 3.55 36.35 Q 4.75 34.575 6.502 33.26 A 13.778 13.778 0 0 1 6.65 33.15 A 19.892 19.892 0 0 1 7.116 32.82 Q 8.59 31.808 10.187 31.105 A 18.303 18.303 0 0 1 10.55 30.95 A 16.822 16.822 0 0 1 12.516 30.274 Q 13.655 29.959 14.85 29.8 A 34.021 34.021 0 0 1 16.545 29.617 Q 17.774 29.516 19.019 29.502 A 35.171 35.171 0 0 1 19.4 29.5 Q 21.188 29.5 22.975 29.698 A 33.01 33.01 0 0 1 23.8 29.8 A 19.291 19.291 0 0 1 26.511 30.37 Q 26.962 30.5 27.408 30.651 A 19.913 19.913 0 0 1 28.1 30.9 Q 30.2 31.7 32 33.1 Q 33.8 34.5 35.05 36.3 Q 36.295 38.093 36.945 40.284 A 15.635 15.635 0 0 1 36.95 40.3 A 16.643 16.643 0 0 1 37.1 40.841 Q 37.433 42.126 37.544 43.411 A 14.941 14.941 0 0 1 37.6 44.7 L 27.5 44.7 A 5.574 5.574 0 0 0 27.402 43.657 Q 27.246 42.841 26.847 42.042 A 7.114 7.114 0 0 0 26.8 41.95 Q 26.18 40.755 25.169 39.952 A 6.127 6.127 0 0 0 24.9 39.75 Q 23.831 38.992 22.563 38.672 A 7.339 7.339 0 0 0 22.25 38.6 A 14.42 14.42 0 0 0 20.51 38.35 Q 20.097 38.315 19.68 38.305 A 14.909 14.909 0 0 0 19.3 38.3 Q 17.957 38.3 16.522 38.576 A 16.941 16.941 0 0 0 16.4 38.6 Q 14.934 38.893 13.754 39.712 A 6.939 6.939 0 0 0 13.7 39.75 Q 12.555 40.561 11.819 41.783 A 7.275 7.275 0 0 0 11.75 41.9 Q 11 43.2 11 44.7 A 4.763 4.763 0 0 0 11.013 45.047 Q 11.115 46.448 12.05 47.65 Q 12.988 48.856 14.284 49.503 A 6.431 6.431 0 0 0 14.6 49.65 A 17.891 17.891 0 0 0 15.164 49.883 Q 16.247 50.309 17.355 50.581 A 16.661 16.661 0 0 0 17.65 50.65 Q 19.037 50.963 20.423 51.356 A 54.102 54.102 0 0 1 20.75 51.45 Q 21.816 51.759 22.881 52.092 A 110.996 110.996 0 0 1 23.85 52.4 A 47.734 47.734 0 0 1 25.005 52.789 Q 25.716 53.038 26.415 53.309 A 46.919 46.919 0 0 1 26.9 53.5 A 29.346 29.346 0 0 1 27.644 53.809 Q 28.556 54.203 29.429 54.655 A 28.178 28.178 0 0 1 29.8 54.85 Q 31.031 55.509 32.184 56.362 A 20.598 20.598 0 0 1 32.5 56.6 Q 33.792 57.594 34.838 58.835 A 15.07 15.07 0 0 1 34.85 58.85 A 16.131 16.131 0 0 1 35.233 59.324 Q 35.987 60.294 36.569 61.35 A 15.051 15.051 0 0 1 36.65 61.5 A 12.595 12.595 0 0 1 37.085 62.395 Q 37.525 63.4 37.8 64.5 A 13.817 13.817 0 0 1 37.926 65.05 Q 38.2 66.375 38.2 67.7 Q 38.2 69.749 37.605 71.758 A 15.273 15.273 0 0 1 37.45 72.25 A 17.115 17.115 0 0 1 37.279 72.737 Q 36.683 74.361 35.789 75.769 A 15.068 15.068 0 0 1 35.4 76.35 A 13.026 13.026 0 0 1 34 78.025 Q 33.334 78.698 32.563 79.284 A 14.217 14.217 0 0 1 32.2 79.55 A 17.328 17.328 0 0 1 31.477 80.037 Q 29.888 81.05 28.1 81.7 A 22.29 22.29 0 0 1 27.549 81.892 Q 25.804 82.475 24.028 82.746 A 20.542 20.542 0 0 1 23.65 82.8 A 32.785 32.785 0 0 1 23.085 82.87 Q 21.358 83.07 19.545 83.096 A 37.993 37.993 0 0 1 19 83.1 A 32.546 32.546 0 0 1 18.448 83.095 Q 16.759 83.067 15.012 82.863 A 37.444 37.444 0 0 1 14.5 82.8 A 20.689 20.689 0 0 1 13.643 82.67 Q 13.124 82.58 12.612 82.464 A 20.1 20.1 0 0 1 10.05 81.7 Q 8.041 80.952 6.249 79.724 A 18.231 18.231 0 0 1 6 79.55 Q 4.1 78.2 2.75 76.3 A 15.261 15.261 0 0 1 2.364 75.729 Q 1.449 74.31 0.88 72.731 A 14.91 14.91 0 0 1 0.7 72.2 Q 0 70 0 67.7 Z" transform="translate(81.00000241 188.50000562)" vector-effect="non-scaling-stroke"/>
    <path d="M 59.8 96.6 L 49.5 96.6 L 78.6 0 L 88.9 0 L 59.8 96.6 Z" transform="translate(81.00000241 188.50000562)" vector-effect="non-scaling-stroke"/>
    <path d="M 109.8 96.6 L 99.5 96.6 L 128.6 0 L 138.9 0 L 109.8 96.6 Z" transform="translate(81.00000241 188.50000562)" vector-effect="non-scaling-stroke"/>
  </g>
</svg>
